<svg xmlns="http://www.w3.org/2000/svg" width="192" height="192" viewBox="0 0 192 192">
  <defs>
    <linearGradient id="g" x1="0" y1="0" x2="1" y2="1">
      <stop offset="0%" stop-color="#f6a70b" />
      <stop offset="50%" stop-color="#b63c79" />
      <stop offset="100%" stop-color="#1b9aaa" />
    </linearGradient>
  </defs>
  <rect width="192" height="192" rx="44" fill="#0b0b10" />
  <circle cx="96" cy="96" r="62" fill="url(#g)" />
  <path d="M52 116c18-22 42-38 68-46 5-2 10 2 10 7 0 4-3 7-6 8-22 7-42 20-57 39-3 3-7 4-10 2-4-2-5-7-5-10z" fill="#0b0b10" />
  <path d="M78 96h44c6 0 10 4 10 10s-4 10-10 10H78c-6 0-10-4-10-10s4-10 10-10z" fill="#0b0b10" />
</svg>
