<svg xmlns="http://www.w3.org/2000/svg" width="512" height="512" viewBox="0 0 512 512">
  <defs>
    <linearGradient id="g" x1="0" y1="0" x2="1" y2="1">
      <stop offset="0%" stop-color="#f6a70b" />
      <stop offset="50%" stop-color="#b63c79" />
      <stop offset="100%" stop-color="#1b9aaa" />
    </linearGradient>
  </defs>
  <rect width="512" height="512" rx="120" fill="#0b0b10" />
  <circle cx="256" cy="256" r="172" fill="url(#g)" />
  <path d="M138 308c52-64 120-110 194-134 14-4 28 6 28 20 0 12-8 22-20 26-64 20-120 58-164 112-8 10-22 12-34 6-12-8-16-24-4-30z" fill="#0b0b10" />
  <path d="M206 256h120c18 0 32 14 32 32s-14 32-32 32H206c-18 0-32-14-32-32s14-32 32-32z" fill="#0b0b10" />
</svg>
